<svg width="247" height="520" viewBox="0 0 247 520" fill="none" xmlns="http://www.w3.org/2000/svg">
<g clip-path="url(#clip0)">
<path d="M159.297 320.498H45.9526C37.4154 320.498 30.4946 327.456 30.4946 336.038C30.4946 344.621 37.4154 351.579 45.9526 351.579H159.297C167.834 351.579 174.755 344.621 174.755 336.038C174.755 327.456 167.834 320.498 159.297 320.498Z" fill="white" stroke="#D8BAA3" stroke-width="6" stroke-miterlimit="10"/>
<path d="M39.8232 518.823C39.6881 518.826 39.5541 518.799 39.43 518.746C39.306 518.692 39.1949 518.612 39.1043 518.511C39.0137 518.41 38.9457 518.291 38.9048 518.161C38.8639 518.032 38.8511 517.895 38.8674 517.76L62.1285 351.579H137.928L40.666 518.349C40.5789 518.495 40.4553 518.616 40.3074 518.699C40.1596 518.782 39.9927 518.825 39.8232 518.823V518.823Z" stroke="#D8BAA3" stroke-width="6" stroke-miterlimit="10"/>
<path d="M164.505 518.823C164.641 518.826 164.776 518.8 164.901 518.745C165.026 518.69 165.137 518.609 165.227 518.507C165.317 518.405 165.384 518.284 165.423 518.153C165.462 518.022 165.473 517.884 165.453 517.749L138.318 351.579H62.5186L163.678 518.364C163.766 518.505 163.888 518.622 164.033 518.702C164.177 518.782 164.34 518.824 164.505 518.823V518.823Z" stroke="#D8BAA3" stroke-width="6" stroke-miterlimit="10"/>
<path d="M189.643 456.286C194.902 456.811 203.416 457.855 213.571 456.886C210.965 466.998 209.767 476.666 207.871 485.256C206.646 490.787 214.114 498.274 216.377 503.691C216.32 503.66 216.261 503.633 216.201 503.609C205.846 501.949 191.98 511.795 193.408 496.427C194.778 481.043 191.333 469.759 189.643 456.286Z" fill="#B65A18"/>
<path d="M193.72 485.115C190.158 485.115 183.6 491.583 184.173 501.938C184.493 508.046 185.498 514.099 187.17 519.98H228.721C230.672 505.181 216.201 503.585 216.201 503.585C205.842 501.926 192.499 511.771 193.927 496.407L193.72 485.115Z" fill="#642648"/>
<path d="M160.772 456.678C166.031 457.203 177.275 457.855 187.431 456.886C184.825 466.997 183.291 485.256 183.291 485.256C182.066 490.787 189.534 498.274 191.797 503.691C191.74 503.66 191.681 503.633 191.621 503.609C181.267 501.949 167.4 511.795 168.828 496.427C170.198 481.043 160.772 456.678 160.772 456.678Z" fill="#C36F0B"/>
<path d="M168.36 485.115C164.798 485.115 159.02 491.583 159.593 501.938C159.913 508.046 160.918 514.099 162.59 519.98H204.141C206.092 505.181 191.621 503.585 191.621 503.585C181.263 501.926 167.919 511.771 169.347 496.407L168.36 485.115Z" fill="#722D54"/>
<path d="M77.2783 233.744C77.2783 233.744 41.5751 277.184 44.115 306.154C46.6549 335.125 76.2521 343.691 130.73 343.052C130.73 343.052 132.325 386.507 160.616 456.799C160.616 456.799 173.744 459.349 189.877 456.799C189.877 456.799 203.533 458.184 213.677 456.733C213.677 456.733 235.307 314.607 232.677 300.192C229.193 281.09 160.342 263.86 142.52 259.722L127.62 233.744C127.62 233.744 97.7029 237.564 77.2783 233.744Z" fill="#3F4D90"/>
<path d="M117.297 276.525C117.297 276.525 174.4 291.587 181.372 310.049C188.344 328.512 188.699 458.368 188.699 458.368" stroke="white" stroke-width="4" stroke-miterlimit="10"/>
<path d="M146.164 179.384C146.164 179.384 143.948 210.422 127.476 233.818C127.476 233.818 100.555 238.435 77.1456 233.818C77.1456 233.818 53.9508 209.296 47.3025 182.718C47.3025 182.718 25.2158 137.682 35.2077 130.041C45.1996 122.4 70.0603 109.253 70.0603 109.253L120.628 111.747C126.871 115.56 140.179 121.793 153.48 128.794L146.164 179.384Z" fill="#F0E1D4"/>
<path d="M105.186 169.08C107.201 169.08 108.834 167.438 108.834 165.413C108.834 163.387 107.201 161.745 105.186 161.745C103.171 161.745 101.538 163.387 101.538 165.413C101.538 167.438 103.171 169.08 105.186 169.08Z" fill="#F0E1D4" stroke="white" stroke-width="5" stroke-linejoin="round"/>
<path d="M105.186 183.922C107.201 183.922 108.834 182.28 108.834 180.255C108.834 178.23 107.201 176.588 105.186 176.588C103.171 176.588 101.538 178.23 101.538 180.255C101.538 182.28 103.171 183.922 105.186 183.922Z" fill="#F0E1D4" stroke="white" stroke-width="5" stroke-linejoin="round"/>
<path d="M105.186 198.761C107.201 198.761 108.834 197.119 108.834 195.093C108.834 193.068 107.201 191.426 105.186 191.426C103.171 191.426 101.538 193.068 101.538 195.093C101.538 197.119 103.171 198.761 105.186 198.761Z" fill="#F0E1D4" stroke="white" stroke-width="5" stroke-linejoin="round"/>
<path d="M153.448 128.79C166.745 135.795 205.87 225.946 189.589 235.478C155.778 255.297 146.164 179.388 146.164 179.388L153.448 128.79Z" fill="#F0E1D4"/>
<path d="M175.363 238.29C179.928 240.251 191.707 236.639 204.797 228.017C217.887 219.396 203.037 213.705 203.037 213.705C203.037 213.705 185.636 206.684 175.02 211.744C164.404 216.803 166.62 234.505 175.363 238.29Z" fill="#B65A18"/>
<path d="M246.025 194.309H174.556L96.1345 245.915H167.599L246.025 194.309Z" fill="white" stroke="#3F4D79" stroke-width="5" stroke-linejoin="round"/>
<path d="M219.599 215.599C219.599 213.724 207.746 202.695 203.213 206.86C201.313 208.602 201.204 223.558 201.379 226.256C201.933 234.846 219.502 225.217 219.599 215.599Z" fill="#C36F0B"/>
<path d="M35.1765 130.041C31.115 133.281 -12.0051 199.278 3.25394 229.669C20.4676 263.973 90.3992 235.489 90.3992 235.489C90.3992 235.489 81.527 232.744 87.2272 221.283C87.2272 221.283 58.2933 205.805 35.0204 210.422C35.0204 210.422 53.0691 180.337 54.9691 168.559C56.8692 156.78 49.7449 118.423 35.1765 130.041Z" fill="#F0E1D4"/>
<path d="M105.514 201.2L118.256 229.814" stroke="#722D54" stroke-width="6" stroke-miterlimit="10"/>
<path d="M87.2467 220.365C87.2467 220.365 100.071 213.014 105.194 215.768C110.808 218.78 117.542 228.319 118.159 229.924C118.775 231.528 118.6 233.195 118.502 234.913C118.405 236.631 106.797 236.533 104.566 236.403C102.334 236.274 90.3563 237.702 88.265 235.642C80.5907 228.088 87.2467 220.365 87.2467 220.365Z" fill="#C36F0B"/>
<path d="M104.562 236.403C106.809 236.533 117.07 236.662 118.377 235.438C120.972 233.018 119.485 229.402 118.186 227.986C116.996 226.684 110.664 218.78 105.19 215.78C105.19 215.78 111.538 226.884 104.562 236.415" fill="#B65A18"/>
<path d="M83.4661 26.5818C83.4661 26.5818 77.7659 17.3486 83.4661 12.5751C89.1663 7.80161 91.5111 0.0510703 101.831 7.98959e-05C112.49 -0.0509105 116.742 8.30367 121.623 7.47998C128.256 6.36211 132.907 4.21267 141.33 8.68021C148.072 12.2574 148.353 25.6679 155.188 24.9893C160.627 24.4519 166.667 24.7971 169.753 30.8728C172.094 35.4737 169.597 47.9036 173.077 51.2454C176.557 54.5873 184.782 55.6777 185.429 64.295C186.288 75.9405 174.193 77.6545 177.353 86.8995C181.512 99.0587 175.644 106.692 165.321 108.08C158.06 109.049 145.302 98.1958 140.624 105.691C136.633 112.081 128.272 114.925 117.995 110.79C107.718 106.656 101.37 107.923 95.0381 110.63C88.7059 113.336 80.9457 117.152 75.7215 112.536C70.4973 107.919 64.1924 107.79 57.2359 110.681C47.5834 114.693 37.2248 108.096 38.5084 99.3294C39.5735 92.0848 29.6831 91.1709 28.536 82.934C27.0378 72.175 42.7845 69.4058 38.1924 64.7893C33.6003 60.1727 33.7641 46.6759 47.3689 44.8873C60.2752 43.2007 57.5129 35.1168 61.1531 29.5902C64.2236 24.9697 73.8097 19.1019 83.4661 26.5818Z" fill="#722D54"/>
<path d="M32.6639 62.2554C28.3722 57.3682 29.7416 42.33 43.4283 41.3925C56.4127 40.5061 54.142 32.2652 58.1177 26.9897C61.4652 22.5535 72.6861 17.2584 83.3061 26.5229" stroke="#722D54" stroke-width="3" stroke-miterlimit="10"/>
<path d="M85.3076 66.2601C85.2101 74.497 85.7212 97.2112 70.0291 109.249C70.0291 109.249 98.2062 123.475 104.566 154.991C104.566 154.991 109.041 121.773 120.597 111.744C120.597 111.744 106.903 103.938 109.911 66.2444L85.3076 66.2601Z" fill="#C36F0B"/>
<path d="M112.49 98.9018C110.539 100.675 108.339 101.687 105.951 101.687C96.0642 101.687 86.2206 86.5464 85.2725 70.3589C85.3037 68.7665 85.3037 67.378 85.3193 66.2601H109.923C108.686 81.5847 110.227 91.9749 112.49 98.9018Z" fill="#B65A18"/>
<path d="M84.4181 58.8077C84.5273 54.6657 85.9787 33.0222 103.415 33.8185C120.851 34.6147 123.679 52.2809 122.119 66.4484C120.558 80.6159 111.975 90.1629 105.97 89.5274C99.9658 88.892 83.9421 76.317 84.4181 58.8077Z" fill="#C36F0B"/>
</g>
<defs>
<clipPath id="clip0">
<rect width="247" height="520" fill="white"/>
</clipPath>
</defs>
</svg>
