<svg width="137" height="30" viewBox="0 0 137 30" fill="none" xmlns="http://www.w3.org/2000/svg">
<path d="M0 23.3747H1.58693V14.8883H0V8.78412H1.65907C1.65907 5.75683 2.36838 3.53598 3.78702 2.12159C5.22969 0.707198 7.32156 0 10.0626 0C11.3851 0 12.5633 0.0992575 13.5972 0.297769C14.6551 0.49628 15.4245 0.719605 15.9054 0.967744V6.81142C14.6311 6.68735 13.4529 6.62531 12.3709 6.62531C11.4332 6.62531 10.784 6.7866 10.4233 7.10918C10.0626 7.43176 9.88229 7.99008 9.88229 8.78412H12.6955V14.8883H9.88229V23.3747H12.6955V29.4789H0V23.3747ZM29.2425 8.26303C29.7234 8.26303 30.1802 8.31266 30.613 8.41191C31.0458 8.51117 31.4065 8.63524 31.695 8.78412V15.8933C30.7092 15.4715 29.6512 15.2605 28.5212 15.2605C27.0063 15.2605 25.8402 15.67 25.0227 16.4888C24.2052 17.3077 23.7964 18.5236 23.7964 20.1365V23.3747H27.0424V29.4789H13.9141V23.3747H15.5011V14.8883H13.9141V8.78412H23.7964V11.5012C24.4697 10.4591 25.2391 9.66501 26.1047 9.11911C26.9703 8.54839 28.0162 8.26303 29.2425 8.26303ZM30.4147 29.4789V23.3747H36.0411V29.4789H30.4147ZM62.375 23.3747V29.4789H50.9779V23.3747H52.4927V17.2705C52.4927 16.4516 52.3244 15.8561 51.9878 15.4839C51.6512 15.0868 51.1462 14.8883 50.473 14.8883C49.0303 14.8883 48.309 15.6824 48.309 17.2705V23.3747H49.8238V29.4789H38.4267V23.3747H40.0137V14.8883H38.4267V8.78412H48.309V11.6873C50.0402 9.40447 52.2042 8.26303 54.801 8.26303C56.7967 8.26303 58.2874 8.90819 59.2733 10.1985C60.2831 11.4888 60.7881 13.263 60.7881 15.5211V23.3747H62.375ZM74.2872 30C70.8728 30 68.2039 29.0819 66.2803 27.2457C64.3568 25.3846 63.395 22.6799 63.395 19.1315C63.395 15.5831 64.3568 12.8908 66.2803 11.0546C68.2039 9.19355 70.8728 8.26303 74.2872 8.26303C77.6774 8.26303 80.1179 9.18114 81.6087 11.0174C83.1235 12.8288 83.8809 15.0868 83.8809 17.7916V20.4715H72.1953V20.6948C72.1953 21.6129 72.4598 22.2953 72.9888 22.7419C73.5177 23.1638 74.3954 23.3747 75.6216 23.3747C77.0883 23.3747 78.4829 23.263 79.8054 23.0397C81.1278 22.8164 82.2819 22.531 83.2678 22.1836V28.139C82.4262 28.6104 81.1879 29.0447 79.5529 29.4417C77.9419 29.8139 76.1867 30 74.2872 30ZM76.379 16.3772V15.9305C76.379 15.0868 76.1987 14.4789 75.838 14.1067C75.5014 13.7345 74.9844 13.5484 74.2872 13.5484C73.5899 13.5484 73.0609 13.7469 72.7002 14.1439C72.3636 14.5161 72.1953 15.1117 72.1953 15.9305V16.3772H76.379ZM90.941 29.4789L86.1801 14.8883H84.6653V8.78412H95.81V14.8883H94.2952L95.5936 20.6948H95.9542L98.5871 8.78412H105.223L107.856 20.6948H108.217L109.479 14.8883H107.964V8.78412H118.424V14.8883H116.909L112.329 29.4789H103.564L101.581 19.1315H101.22L99.2363 29.4789H90.941ZM128.2 30C125.17 30 122.249 29.5037 119.436 28.5112V23.0025H125.279V23.3747C125.279 24.5658 126.012 25.1613 127.479 25.1613C128.777 25.1613 129.426 24.7022 129.426 23.7841C129.426 23.2878 129.234 22.9156 128.849 22.6675C128.489 22.4194 127.839 22.2084 126.902 22.0347L125.098 21.6998C121.323 21.005 119.436 18.7965 119.436 15.0744C119.436 12.9156 120.229 11.2407 121.816 10.0496C123.403 8.85856 125.543 8.26303 128.236 8.26303C131.242 8.26303 133.778 8.78412 135.846 9.8263V15H130.364V14.6278C130.364 14.1315 130.196 13.7593 129.859 13.5112C129.547 13.2382 129.078 13.1017 128.453 13.1017C127.25 13.1017 126.649 13.4988 126.649 14.2928C126.649 14.7146 126.818 15.0372 127.154 15.2605C127.491 15.4839 128.104 15.6948 128.994 15.8933L131.049 16.3027C133.189 16.7246 134.716 17.5062 135.63 18.6476C136.543 19.7891 137 21.2531 137 23.0397C137 25.2978 136.231 27.0223 134.692 28.2134C133.177 29.4045 131.013 30 128.2 30Z" fill="white"/>
</svg>
